<svg version="1.1" id="Layer_1" xmlns="http://www.w3.org/2000/svg" xmlns:xlink="http://www.w3.org/1999/xlink" x="0px" y="0px"
	 width="100%" viewBox="0 0 1024 1024" enable-background="new 0 0 1024 1024" xml:space="preserve">
<path fill="#242B42" opacity="1.000000" stroke="none" 
	d="
M573.000000,1025.000000 
	C382.000000,1025.000000 191.500000,1025.000000 1.000000,1025.000000 
	C1.000000,683.666687 1.000000,342.333344 1.000000,1.000000 
	C342.333344,1.000000 683.666687,1.000000 1025.000000,1.000000 
	C1025.000000,342.333344 1025.000000,683.666687 1025.000000,1025.000000 
	C874.500000,1025.000000 724.000000,1025.000000 573.000000,1025.000000 
M315.824554,514.974121 
	C315.773590,513.838867 315.722656,512.703613 315.852905,510.794617 
	C315.820892,508.939301 315.788879,507.083954 315.926239,504.592041 
	C315.881256,503.720001 315.836243,502.847931 315.930023,501.287384 
	C316.084625,500.617615 316.239258,499.947876 316.513184,498.761169 
	C319.851959,502.718048 322.777985,506.185852 325.952911,510.245850 
	C338.164337,525.851746 350.355408,541.473755 362.627106,557.032104 
	C363.577606,558.237183 365.080566,559.813232 366.350189,559.834717 
	C378.758087,560.045166 391.170929,559.961487 405.067932,559.961487 
	C387.304260,538.221741 370.402924,517.537354 353.150757,496.207886 
	C352.296356,495.033264 351.441925,493.858643 350.580994,492.675110 
	C366.516235,473.932892 382.265045,455.409943 398.763824,436.004913 
	C386.740601,436.004913 376.249451,436.156311 365.766968,435.920990 
	C362.206390,435.841034 359.931824,437.064636 357.791443,439.785522 
	C349.348907,450.517975 340.724487,461.107361 332.165161,471.747894 
	C327.113312,478.028107 322.057007,484.304657 317.002747,490.582886 
	C316.558990,490.445068 316.115265,490.307251 315.671539,490.169434 
	C315.671539,482.759186 315.671539,475.348938 315.803619,467.107941 
	C315.755188,465.428192 315.706726,463.748474 315.825500,461.364716 
	C315.772552,460.888397 315.719574,460.412048 315.805908,459.018494 
	C315.805908,433.782288 315.805908,408.546112 315.805908,383.078857 
	C305.123596,383.078857 295.026245,383.078857 284.442841,383.078857 
	C284.442841,391.906128 284.422363,400.531799 284.446930,409.157349 
	C284.503815,429.123505 284.582458,449.089569 284.423492,469.620422 
	C284.503662,470.010559 284.583832,470.400696 284.459839,471.593353 
	C284.552032,475.037323 284.644196,478.481262 284.468933,482.754852 
	C284.555298,484.191956 284.641632,485.629059 284.499603,487.937256 
	C284.553497,490.932556 284.607361,493.927856 284.403137,497.836090 
	C284.499359,503.212219 284.595581,508.588348 284.460876,514.805664 
	C284.545563,516.540771 284.630249,518.275940 284.493439,520.924683 
	C284.582520,529.596802 284.671600,538.268860 284.494446,547.837952 
	C284.494446,551.770447 284.494446,555.702942 284.494446,559.575012 
	C295.248108,559.575012 305.316132,559.575012 315.679016,559.575012 
	C315.679016,544.725037 315.679016,530.268372 315.824554,514.974121 
M449.924164,436.481110 
	C449.714508,436.179077 449.438568,436.095367 448.155701,436.092987 
	C438.621857,436.092987 429.088043,436.092987 419.196777,436.092987 
	C419.196777,447.873749 419.196777,458.927063 419.052612,470.910309 
	C419.108459,483.940674 419.164337,496.971008 419.074677,510.927795 
	C419.074677,527.171265 419.074677,543.414673 419.074677,559.633057 
	C430.089874,559.633057 440.182983,559.633057 450.724915,559.633057 
	C450.724915,544.205627 450.724915,529.102112 450.870575,513.072693 
	C450.896118,508.749756 450.899933,504.426605 450.951263,500.103973 
	C451.113312,486.457642 459.393280,473.681030 472.271698,469.253845 
	C478.889679,466.978790 486.185272,466.644653 493.193939,465.557861 
	C494.901154,465.293121 496.684326,465.518433 498.543335,465.518433 
	C498.543335,454.743713 498.543335,444.709198 498.543335,434.740631 
	C481.194153,432.244537 461.238708,442.133514 452.891205,456.993530 
	C452.227539,458.174988 450.894653,458.980469 450.055664,459.046417 
	C450.018982,451.679749 449.982330,444.313049 449.924164,436.481110 
M820.150757,456.393677 
	C820.150757,456.393677 820.006592,456.065674 820.176208,455.133362 
	C820.176208,449.068817 820.176208,443.004272 820.176208,437.069336 
	C810.042603,437.069336 800.476318,437.069336 790.583679,437.220276 
	C790.390137,437.439453 790.388184,437.660492 790.471680,438.829254 
	C790.521606,451.557373 790.571594,464.285522 790.410950,477.798920 
	C790.477966,478.872589 790.544983,479.946289 790.414673,481.886078 
	C790.469910,484.244965 790.525146,486.603821 790.382202,489.885193 
	C790.438965,502.249878 790.495728,514.614563 790.366516,527.901367 
	C790.320923,537.231873 790.177246,546.564026 790.338867,555.890930 
	C790.362244,557.241943 791.815613,559.704956 792.664917,559.730408 
	C801.945618,560.009094 811.237732,559.905029 820.892883,559.905029 
	C820.892883,543.912781 820.892883,528.465820 821.027283,512.088257 
	C821.040527,510.426605 820.899353,508.746765 821.092957,507.106384 
	C822.097778,498.593628 821.855225,489.641357 824.539734,481.682983 
	C829.386292,467.315247 843.180298,460.079742 857.824402,462.336670 
	C872.003662,464.521942 878.522644,472.161804 880.134277,489.079712 
	C880.699219,495.010071 880.535278,501.009827 880.516785,507.901794 
	C880.516785,525.095886 880.516785,542.289978 880.516785,559.670715 
	C890.875549,559.670715 900.713074,559.670715 910.803406,559.670715 
	C910.803406,553.832886 910.803406,548.388916 910.945496,542.023987 
	C910.967102,524.206848 911.115723,506.388611 910.966553,488.572876 
	C910.863892,476.310699 908.798889,464.319611 902.333679,453.711304 
	C888.942200,431.738373 854.406799,427.120605 832.401611,444.371613 
	C828.320496,448.498383 824.239441,452.625122 820.150757,456.393677 
M531.499695,554.337952 
	C560.797668,570.665161 606.559875,562.537720 624.978577,545.869995 
	C621.572144,538.610352 618.141663,531.299561 614.502197,523.543213 
	C602.257263,532.431946 588.830872,536.725159 573.452576,537.392273 
	C570.973267,537.330872 568.494019,537.269470 565.522644,536.998901 
	C565.344666,537.008545 565.166687,537.018188 564.632324,536.791443 
	C564.091492,536.870300 563.550720,536.949158 562.337219,536.970276 
	C561.890381,537.012634 561.443542,537.054993 560.388062,536.734253 
	C553.578857,532.708862 546.769714,528.683472 539.564209,524.038940 
	C535.065369,519.503845 532.535156,514.144165 532.075989,507.112122 
	C564.075806,507.112122 595.454346,507.112122 627.061707,507.112122 
	C627.061707,501.107513 627.313965,495.628784 627.008179,490.181366 
	C626.405090,479.437469 624.086670,469.133148 617.876343,459.384338 
	C617.290771,458.838257 616.705139,458.292175 616.027100,457.243103 
	C615.734680,456.825409 615.442261,456.407684 615.121155,455.282257 
	C605.080505,441.277466 590.850830,434.914276 574.225647,433.367157 
	C534.765015,429.695038 501.539551,458.087555 500.093079,495.905457 
	C499.636200,510.428680 501.776031,524.254761 511.091339,536.844055 
	C516.406555,544.053650 522.911865,549.873901 531.499695,554.337952 
M229.734314,450.866241 
	C229.665802,451.173676 229.550369,451.462280 228.728455,451.724121 
	C228.290512,451.750244 227.852554,451.776367 227.340820,451.087341 
	C220.815353,443.209167 212.546310,438.022522 202.674057,435.516937 
	C186.911026,431.516296 171.196854,432.040649 156.185822,438.256958 
	C137.051056,446.181030 123.616341,459.670593 118.208931,481.112427 
	C117.531372,485.030060 116.456017,488.926361 116.244934,492.868988 
	C115.318466,510.173706 118.774590,526.190125 131.296890,539.913147 
	C134.313248,542.984131 137.047852,546.409119 140.390671,549.069885 
	C166.664520,569.983276 209.575150,566.853394 229.079056,543.009277 
	C229.264938,543.176208 229.450806,543.343079 229.755783,544.374023 
	C229.755783,549.453430 229.755783,554.532776 229.755783,559.601624 
	C240.019363,559.601624 249.675079,559.601624 259.569183,559.601624 
	C259.569183,550.776001 259.569183,542.365295 259.717316,533.035583 
	C259.717316,500.883545 259.717316,468.731537 259.717316,436.264343 
	C251.155960,436.264343 243.074997,436.264343 234.240555,436.119354 
	C232.825485,436.198914 231.410431,436.278442 229.924530,436.362000 
	C229.924530,440.833313 229.924530,444.918793 229.742172,449.485748 
	C229.836166,449.805328 229.930161,450.124878 229.734314,450.866241 
M744.703125,442.274109 
	C727.248718,433.311829 708.563110,431.693512 689.777588,435.180328 
	C656.681580,441.323334 635.083740,470.323425 637.960205,503.879700 
	C639.453735,519.805054 644.884705,533.894470 657.386536,545.432312 
	C678.419373,564.932007 716.961792,569.226135 744.489624,555.136658 
	C768.451111,542.872559 782.091309,514.312256 776.612061,487.204926 
	C774.876282,476.509583 770.602905,466.860321 763.963806,458.384521 
	C758.861084,451.870209 753.296936,445.694244 744.703125,442.274109 
z"/>
<path fill="#6477E6" opacity="1.000000" stroke="none" 
	d="
M790.552490,526.979248 
	C790.495728,514.614563 790.438965,502.249878 790.694275,489.175995 
	C790.874878,485.984528 790.743408,483.502228 790.611938,481.019958 
	C790.544983,479.946289 790.477966,478.872589 790.877258,477.427887 
	C798.345459,476.044159 805.399902,475.303497 812.338135,473.961639 
	C826.311035,471.259247 835.261719,458.166962 833.030640,444.166992 
	C854.406799,427.120605 888.942200,431.738373 902.333679,453.711304 
	C908.798889,464.319611 910.863892,476.310699 910.966553,488.572876 
	C911.115723,506.388611 910.967102,524.206848 910.737061,542.101807 
	C910.234070,529.938599 909.939514,517.697510 909.646057,505.503113 
	C907.160339,506.802368 905.437500,508.068695 903.509399,508.631592 
	C899.921326,509.679138 896.108093,510.003357 892.578125,511.191711 
	C885.635254,513.528992 884.317871,513.208557 880.704224,506.977905 
	C880.535278,501.009827 880.699219,495.010071 880.134277,489.079712 
	C878.522644,472.161804 872.003662,464.521942 857.824402,462.336670 
	C843.180298,460.079742 829.386292,467.315247 824.539734,481.682983 
	C821.855225,489.641357 822.097778,498.593628 821.092957,507.106384 
	C820.899353,508.746765 821.040527,510.426605 820.590698,512.592041 
	C814.026611,514.078735 807.881653,514.964722 801.777161,516.073975 
	C796.536194,517.026306 791.039551,517.876465 791.588623,525.342896 
	C791.626648,525.860168 790.915344,526.432495 790.552490,526.979248 
z"/>
<path fill="#9681E0" opacity="1.000000" stroke="none" 
	d="
M259.569183,533.954651 
	C259.569183,542.365295 259.569183,550.776001 259.569183,559.601624 
	C249.675079,559.601624 240.019363,559.601624 229.755783,559.601624 
	C229.755783,554.532776 229.755783,549.453430 229.801880,543.666504 
	C229.408401,542.806030 228.968842,542.653015 228.529297,542.500000 
	C209.575150,566.853394 166.664520,569.983276 140.390671,549.069885 
	C137.047852,546.409119 134.313248,542.984131 131.221375,539.320801 
	C134.575211,534.183655 139.479401,535.806519 143.870453,535.911560 
	C150.526611,536.070740 157.321182,537.100830 160.541351,529.038818 
	C160.740311,528.540649 161.596329,528.304993 162.467224,528.083557 
	C163.674179,528.640991 164.585312,529.017090 165.443329,529.489563 
	C191.329407,543.746399 216.475510,534.794006 227.930634,507.604218 
	C235.735565,508.734039 243.271408,509.820862 250.474747,507.004059 
	C256.634338,504.595428 257.902802,505.121094 257.956512,511.534576 
	C258.003723,517.166748 257.852997,522.804199 258.060638,528.429260 
	C258.129211,530.287048 259.042236,532.113770 259.569183,533.954651 
z"/>
<path fill="#848AE8" opacity="1.000000" stroke="none" 
	d="
M615.149841,455.989990 
	C615.442261,456.407684 615.734680,456.825409 616.184143,457.774475 
	C616.893372,458.867981 617.445557,459.430084 617.997742,459.992188 
	C624.086670,469.133148 626.405090,479.437469 627.008179,490.181366 
	C627.313965,495.628784 627.061707,501.107513 627.061707,507.112122 
	C595.454346,507.112122 564.075806,507.112122 532.075989,507.112122 
	C532.535156,514.144165 535.065369,519.503845 539.269958,524.396606 
	C534.480591,523.542847 529.694580,522.933899 525.574646,520.945251 
	C521.701660,519.075684 517.999939,518.321228 514.951660,520.952515 
	C512.199829,523.327881 508.907013,526.361877 511.902191,531.150635 
	C512.566467,532.212708 511.292755,534.486816 510.911377,536.202881 
	C501.776031,524.254761 499.636200,510.428680 500.506927,495.296082 
	C506.764923,492.453735 512.569824,490.109741 518.466125,488.024475 
	C522.855835,486.472015 526.868530,483.016693 532.124512,485.389008 
	C531.548523,489.110657 533.889160,488.727661 535.856323,488.726105 
	C555.317932,488.710785 574.779602,488.689087 594.241150,488.635559 
	C595.364319,488.632477 596.486694,488.338257 597.551636,488.187714 
	C598.315613,481.005829 597.051331,477.037903 591.124207,466.848938 
	C599.247925,463.025085 607.198914,459.507538 615.149841,455.989990 
z"/>
<path fill="#6477E6" opacity="1.000000" stroke="none" 
	d="
M776.568787,487.968445 
	C782.091309,514.312256 768.451111,542.872559 744.489624,555.136658 
	C716.961792,569.226135 678.419373,564.932007 657.489136,544.893677 
	C663.564453,543.307678 668.352600,540.094910 673.206238,536.617188 
	C676.756104,534.073608 681.206970,532.787415 685.515137,530.997620 
	C686.179504,531.388916 686.584900,531.723328 687.229248,532.204651 
	C687.788086,532.546265 688.107910,532.741028 688.776001,532.980469 
	C707.933594,540.969238 724.669922,538.168030 736.526489,525.189087 
	C743.262512,517.815491 745.602234,508.823669 746.798645,499.114014 
	C749.123840,498.119019 751.016174,497.098541 753.015259,496.370972 
	C760.848145,493.519928 768.714722,490.761383 776.568787,487.968445 
z"/>
<path fill="#A090E3" opacity="1.000000" stroke="none" 
	d="
M315.666595,459.935730 
	C315.719574,460.412048 315.772552,460.888397 315.512054,461.926331 
	C315.356262,464.304871 315.513885,466.121765 315.671539,467.938690 
	C315.671539,475.348938 315.671539,482.759186 315.671539,490.169434 
	C316.115265,490.307251 316.558990,490.445068 317.002747,490.582886 
	C322.057007,484.304657 327.113312,478.028107 332.165161,471.747894 
	C340.724487,461.107361 349.348907,450.517975 357.791443,439.785522 
	C359.931824,437.064636 362.206390,435.841034 365.766968,435.920990 
	C376.249451,436.156311 386.740601,436.004913 398.763824,436.004913 
	C382.265045,455.409943 366.516235,473.932892 350.580994,492.675110 
	C351.441925,493.858643 352.296356,495.033264 352.901245,496.571259 
	C350.742615,497.440002 348.761810,497.764099 346.938110,498.485443 
	C341.900116,500.478149 336.830109,502.437408 331.971985,504.816650 
	C329.649963,505.953827 327.779205,508.012390 325.704041,509.653625 
	C322.777985,506.185852 319.851959,502.718048 316.513184,498.761169 
	C316.239258,499.947876 316.084625,500.617615 315.566162,501.640137 
	C314.810669,502.016113 314.419006,502.039368 313.679199,501.954895 
	C310.536957,501.900024 307.719147,501.739105 304.953125,502.045471 
	C296.455627,502.986694 289.295044,506.337921 284.691803,513.964478 
	C284.595581,508.588348 284.499359,503.212219 284.729187,497.108398 
	C284.946167,493.275848 284.837067,490.170990 284.727966,487.066162 
	C284.641632,485.629059 284.555298,484.191956 284.797485,482.056702 
	C284.972015,477.835968 284.818024,474.313416 284.664001,470.790833 
	C284.583832,470.400696 284.503662,470.010559 284.987305,469.329468 
	C288.841461,468.226471 292.701965,468.239441 295.308563,466.438019 
	C301.551758,462.123444 308.385681,460.540100 315.666595,459.935730 
z"/>
<path fill="#8F90E6" opacity="1.000000" stroke="none" 
	d="
M615.135498,455.636139 
	C607.198914,459.507538 599.247925,463.025085 590.836426,466.670502 
	C585.731384,461.634338 579.989380,458.705444 573.049255,457.954712 
	C553.184998,455.805939 539.365662,464.877197 532.060120,484.975708 
	C526.868530,483.016693 522.855835,486.472015 518.466125,488.024475 
	C512.569824,490.109741 506.764923,492.453735 500.635162,494.848755 
	C501.539551,458.087555 534.765015,429.695038 574.225647,433.367157 
	C590.850830,434.914276 605.080505,441.277466 615.135498,455.636139 
z"/>
<path fill="#8F90E6" opacity="1.000000" stroke="none" 
	d="
M449.872803,459.960693 
	C450.894653,458.980469 452.227539,458.174988 452.891205,456.993530 
	C461.238708,442.133514 481.194153,432.244537 498.543335,434.740631 
	C498.543335,444.709198 498.543335,454.743713 498.543335,465.518433 
	C496.684326,465.518433 494.901154,465.293121 493.193939,465.557861 
	C486.185272,466.644653 478.889679,466.978790 472.271698,469.253845 
	C459.393280,473.681030 451.113312,486.457642 450.951263,500.103973 
	C450.899933,504.426605 450.896118,508.749756 450.531525,513.280518 
	C449.781647,510.276672 449.722595,506.962311 448.826111,503.892456 
	C448.300598,502.092804 446.443665,499.324432 445.181396,499.322144 
	C438.044037,499.309174 431.047821,500.096863 425.773254,506.098358 
	C424.176178,507.915558 421.436523,508.728485 419.220215,510.001404 
	C419.164337,496.971008 419.108459,483.940674 419.478851,470.399872 
	C421.695526,469.099152 423.560089,468.442261 425.263702,467.495697 
	C432.939270,463.231110 440.621918,459.056152 449.872803,459.960693 
z"/>
<path fill="#AD8AE1" opacity="1.000000" stroke="none" 
	d="
M118.642441,480.440460 
	C123.616341,459.670593 137.051056,446.181030 156.185822,438.256958 
	C171.196854,432.040649 186.911026,431.516296 202.674057,435.516937 
	C212.546310,438.022522 220.815353,443.209167 227.030304,451.578583 
	C222.780502,457.011169 217.278061,458.324738 211.364227,459.189789 
	C209.444092,459.470703 207.783478,461.525848 205.638733,462.718384 
	C185.697952,455.947449 168.538712,458.521240 155.155212,475.676361 
	C154.972519,475.910583 154.578400,475.979797 153.916916,476.006042 
	C149.895996,473.828217 146.718979,474.728760 142.805206,476.134827 
	C135.781326,478.658173 128.241791,479.760559 120.892487,481.339203 
	C120.237061,481.479950 119.396835,480.760437 118.642441,480.440460 
z"/>
<path fill="#7F86E7" opacity="1.000000" stroke="none" 
	d="
M638.061707,503.017853 
	C635.083740,470.323425 656.681580,441.323334 689.777588,435.180328 
	C708.563110,431.693512 727.248718,433.311829 744.661194,442.855164 
	C741.960144,444.612213 739.347961,446.634369 736.632019,446.784729 
	C731.293274,447.080322 725.836548,446.735687 720.537354,445.935883 
	C710.274963,444.386993 701.144897,450.501740 700.731323,459.583710 
	C686.900024,462.006592 678.198425,470.367218 671.814697,481.955200 
	C670.068970,482.667236 668.486633,483.294769 667.203613,484.303162 
	C664.424438,486.487457 661.945374,489.072632 659.076355,491.119202 
	C654.455078,494.415649 649.700012,497.546112 644.833069,500.465942 
	C642.798035,501.686798 640.331848,502.188934 638.061707,503.017853 
z"/>
<path fill="#B5A1E8" opacity="1.000000" stroke="none" 
	d="
M315.736267,459.477112 
	C308.385681,460.540100 301.551758,462.123444 295.308563,466.438019 
	C292.701965,468.239441 288.841461,468.226471 285.101685,469.047089 
	C284.582458,449.089569 284.503815,429.123505 284.446930,409.157349 
	C284.422363,400.531799 284.442841,391.906128 284.442841,383.078857 
	C295.026245,383.078857 305.123596,383.078857 315.805908,383.078857 
	C315.805908,408.546112 315.805908,433.782288 315.736267,459.477112 
z"/>
<path fill="#A68BE4" opacity="1.000000" stroke="none" 
	d="
M206.004150,462.769409 
	C207.783478,461.525848 209.444092,459.470703 211.364227,459.189789 
	C217.278061,458.324738 222.780502,457.011169 227.067200,451.936157 
	C227.852554,451.776367 228.290512,451.750244 229.135468,451.530426 
	C229.703018,451.039307 229.863586,450.741882 230.024170,450.444458 
	C229.930161,450.124878 229.836166,449.805328 230.197327,449.191467 
	C234.319077,448.107147 235.782440,445.652222 235.620621,442.110107 
	C235.531342,440.156067 235.210495,438.212585 234.994034,436.264343 
	C243.074997,436.264343 251.155960,436.264343 259.717316,436.264343 
	C259.717316,468.731537 259.717316,500.883545 259.643250,533.495117 
	C259.042236,532.113770 258.129211,530.287048 258.060638,528.429260 
	C257.852997,522.804199 258.003723,517.166748 257.956512,511.534576 
	C257.902802,505.121094 256.634338,504.595428 250.474747,507.004059 
	C243.271408,509.820862 235.735565,508.734039 227.956390,507.205811 
	C227.936676,502.598175 228.744492,498.596710 228.481888,494.666748 
	C227.472885,479.566040 218.953979,469.559174 206.004150,462.769409 
z"/>
<path fill="#9187E4" opacity="1.000000" stroke="none" 
	d="
M325.828491,509.949738 
	C327.779205,508.012390 329.649963,505.953827 331.971985,504.816650 
	C336.830109,502.437408 341.900116,500.478149 346.938110,498.485443 
	C348.761810,497.764099 350.742615,497.440002 353.076660,496.893799 
	C370.402924,517.537354 387.304260,538.221741 405.067932,559.961487 
	C391.170929,559.961487 378.758087,560.045166 366.350189,559.834717 
	C365.080566,559.813232 363.577606,558.237183 362.627106,557.032104 
	C350.355408,541.473755 338.164337,525.851746 325.828491,509.949738 
z"/>
<path fill="#7380E6" opacity="1.000000" stroke="none" 
	d="
M574.258179,537.597839 
	C588.830872,536.725159 602.257263,532.431946 614.502197,523.543213 
	C618.141663,531.299561 621.572144,538.610352 624.978577,545.869995 
	C606.559875,562.537720 560.797668,570.665161 531.173218,553.780945 
	C530.091858,550.068237 531.602722,548.641052 534.562866,548.090393 
	C539.902649,547.097107 545.247803,546.103088 550.537354,544.878723 
	C555.089783,543.824951 559.633789,542.538208 560.996704,537.097351 
	C561.443542,537.054993 561.890381,537.012634 562.864258,537.085083 
	C563.923828,537.142517 564.456238,537.085205 564.988708,537.027893 
	C565.166687,537.018188 565.344666,537.008545 565.999878,537.368286 
	C569.070740,537.690979 571.664490,537.644409 574.258179,537.597839 
z"/>
<path fill="#A284E1" opacity="1.000000" stroke="none" 
	d="
M118.425690,480.776428 
	C119.396835,480.760437 120.237061,481.479950 120.892487,481.339203 
	C128.241791,479.760559 135.781326,478.658173 142.805206,476.134827 
	C146.718979,474.728760 149.895996,473.828217 153.874680,476.378357 
	C152.790253,480.404602 150.983978,483.836090 150.042740,487.490417 
	C145.960266,503.340332 151.348846,516.482788 162.146637,527.947144 
	C161.596329,528.304993 160.740311,528.540649 160.541351,529.038818 
	C157.321182,537.100830 150.526611,536.070740 143.870453,535.911560 
	C139.479401,535.806519 134.575211,534.183655 130.998840,539.093018 
	C118.774590,526.190125 115.318466,510.173706 116.244934,492.868988 
	C116.456017,488.926361 117.531372,485.030060 118.425690,480.776428 
z"/>
<path fill="#7380E6" opacity="1.000000" stroke="none" 
	d="
M701.066650,459.447327 
	C701.144897,450.501740 710.274963,444.386993 720.537354,445.935883 
	C725.836548,446.735687 731.293274,447.080322 736.632019,446.784729 
	C739.347961,446.634369 741.960144,444.612213 744.844727,443.160156 
	C753.296936,445.694244 758.861084,451.870209 763.963806,458.384521 
	C770.602905,466.860321 774.876282,476.509583 776.590454,487.586670 
	C768.714722,490.761383 760.848145,493.519928 753.015259,496.370972 
	C751.016174,497.098541 749.123840,498.119019 746.726074,498.713318 
	C745.362000,493.195526 745.171326,487.713776 743.416199,482.789551 
	C737.419678,465.965424 721.817627,457.599213 701.066650,459.447327 
z"/>
<path fill="#848AE8" opacity="1.000000" stroke="none" 
	d="
M419.147461,510.464600 
	C421.436523,508.728485 424.176178,507.915558 425.773254,506.098358 
	C431.047821,500.096863 438.044037,499.309174 445.181396,499.322144 
	C446.443665,499.324432 448.300598,502.092804 448.826111,503.892456 
	C449.722595,506.962311 449.781647,510.276672 450.458679,513.743469 
	C450.724915,529.102112 450.724915,544.205627 450.724915,559.633057 
	C440.182983,559.633057 430.089874,559.633057 419.074677,559.633057 
	C419.074677,543.414673 419.074677,527.171265 419.147461,510.464600 
z"/>
<path fill="#7380E6" opacity="1.000000" stroke="none" 
	d="
M638.010986,503.448792 
	C640.331848,502.188934 642.798035,501.686798 644.833069,500.465942 
	C649.700012,497.546112 654.455078,494.415649 659.076355,491.119202 
	C661.945374,489.072632 664.424438,486.487457 667.203613,484.303162 
	C668.486633,483.294769 670.068970,482.667236 671.768799,482.343597 
	C665.724487,501.805511 670.088562,517.858704 685.256165,530.940735 
	C681.206970,532.787415 676.756104,534.073608 673.206238,536.617188 
	C668.352600,540.094910 663.564453,543.307678 657.325317,544.597290 
	C644.884705,533.894470 639.453735,519.805054 638.010986,503.448792 
z"/>
<path fill="#5671E8" opacity="1.000000" stroke="none" 
	d="
M880.610474,507.439850 
	C884.317871,513.208557 885.635254,513.528992 892.578125,511.191711 
	C896.108093,510.003357 899.921326,509.679138 903.509399,508.631592 
	C905.437500,508.068695 907.160339,506.802368 909.646057,505.503113 
	C909.939514,517.697510 910.234070,529.938599 910.666016,542.562256 
	C910.803406,548.388916 910.803406,553.832886 910.803406,559.670715 
	C900.713074,559.670715 890.875549,559.670715 880.516785,559.670715 
	C880.516785,542.289978 880.516785,525.095886 880.610474,507.439850 
z"/>
<path fill="#7380E6" opacity="1.000000" stroke="none" 
	d="
M832.716125,444.269287 
	C835.261719,458.166962 826.311035,471.259247 812.338135,473.961639 
	C805.399902,475.303497 798.345459,476.044159 790.982544,477.035248 
	C790.571594,464.285522 790.521606,451.557373 790.599609,438.228485 
	C790.816284,437.450684 790.877075,437.264557 790.910034,437.069336 
	C800.476318,437.069336 810.042603,437.069336 820.176208,437.069336 
	C820.176208,443.004272 820.176208,449.068817 820.087646,455.688232 
	C820.016052,456.424011 820.069153,456.593628 820.158325,456.751892 
	C824.239441,452.625122 828.320496,448.498383 832.716125,444.269287 
z"/>
<path fill="#5671E8" opacity="1.000000" stroke="none" 
	d="
M790.459473,527.440308 
	C790.915344,526.432495 791.626648,525.860168 791.588623,525.342896 
	C791.039551,517.876465 796.536194,517.026306 801.777161,516.073975 
	C807.881653,514.964722 814.026611,514.078735 820.523438,513.057312 
	C820.892883,528.465820 820.892883,543.912781 820.892883,559.905029 
	C811.237732,559.905029 801.945618,560.009094 792.664917,559.730408 
	C791.815613,559.704956 790.362244,557.241943 790.338867,555.890930 
	C790.177246,546.564026 790.320923,537.231873 790.459473,527.440308 
z"/>
<path fill="#7F86E7" opacity="1.000000" stroke="none" 
	d="
M560.692383,536.915771 
	C559.633789,542.538208 555.089783,543.824951 550.537354,544.878723 
	C545.247803,546.103088 539.902649,547.097107 534.562866,548.090393 
	C531.602722,548.641052 530.091858,550.068237 530.910889,553.549622 
	C522.911865,549.873901 516.406555,544.053650 511.001343,536.523438 
	C511.292755,534.486816 512.566467,532.212708 511.902191,531.150635 
	C508.907013,526.361877 512.199829,523.327881 514.951660,520.952515 
	C517.999939,518.321228 521.701660,519.075684 525.574646,520.945251 
	C529.694580,522.933899 534.480591,523.542847 539.468140,524.706177 
	C546.769714,528.683472 553.578857,532.708862 560.692383,536.915771 
z"/>
<path fill="#9187E4" opacity="1.000000" stroke="none" 
	d="
M284.576355,514.385071 
	C289.295044,506.337921 296.455627,502.986694 304.953125,502.045471 
	C307.719147,501.739105 310.536957,501.900024 313.769867,502.309326 
	C314.724731,503.590485 315.240784,504.409576 315.756836,505.228638 
	C315.788879,507.083954 315.820892,508.939301 315.520538,511.512024 
	C314.798584,513.496094 314.408997,514.762756 314.018250,516.481201 
	C314.757690,523.007141 313.664642,528.135437 307.125000,530.549194 
	C306.546570,530.762756 306.195282,531.549927 305.620758,531.822144 
	C299.095062,534.914673 292.546417,537.958740 286.000793,540.545654 
	C285.996643,538.254883 286.107880,536.425842 285.972931,534.615112 
	C285.609741,529.742920 285.141479,524.878540 284.714935,520.011047 
	C284.630249,518.275940 284.545563,516.540771 284.576355,514.385071 
z"/>
<path fill="#A090E3" opacity="1.000000" stroke="none" 
	d="
M449.964233,459.503540 
	C440.621918,459.056152 432.939270,463.231110 425.263702,467.495697 
	C423.560089,468.442261 421.695526,469.099152 419.550934,469.934875 
	C419.196777,458.927063 419.196777,447.873749 419.196777,436.092987 
	C429.088043,436.092987 438.621857,436.092987 448.757233,436.292175 
	C449.540253,436.661255 449.735870,436.812927 449.945679,436.946381 
	C449.982330,444.313049 450.018982,451.679749 449.964233,459.503540 
z"/>
<path fill="#9681E0" opacity="1.000000" stroke="none" 
	d="
M286.003937,541.015808 
	C292.546417,537.958740 299.095062,534.914673 305.620758,531.822144 
	C306.195282,531.549927 306.546570,530.762756 307.125000,530.549194 
	C313.664642,528.135437 314.757690,523.007141 314.432678,516.423706 
	C315.125183,515.880188 315.402100,515.845886 315.679016,515.811646 
	C315.679016,530.268372 315.679016,544.725037 315.679016,559.575012 
	C305.316132,559.575012 295.248108,559.575012 284.494446,559.575012 
	C284.494446,555.702942 284.494446,551.770447 284.819763,547.128174 
	C285.431335,544.617554 285.717651,542.816711 286.003937,541.015808 
z"/>
<path fill="#AD8AE1" opacity="1.000000" stroke="none" 
	d="
M234.617294,436.191833 
	C235.210495,438.212585 235.531342,440.156067 235.620621,442.110107 
	C235.782440,445.652222 234.319077,448.107147 230.288513,448.950745 
	C229.924530,444.918793 229.924530,440.833313 229.924530,436.362000 
	C231.410431,436.278442 232.825485,436.198914 234.617294,436.191833 
z"/>
<path fill="#A090E3" opacity="1.000000" stroke="none" 
	d="
M286.000793,540.545654 
	C285.717651,542.816711 285.431335,544.617554 284.952881,546.679688 
	C284.671600,538.268860 284.582520,529.596802 284.604187,520.467896 
	C285.141479,524.878540 285.609741,529.742920 285.972931,534.615112 
	C286.107880,536.425842 285.996643,538.254883 286.000793,540.545654 
z"/>
<path fill="#B5A1E8" opacity="1.000000" stroke="none" 
	d="
M284.561920,471.192078 
	C284.818024,474.313416 284.972015,477.835968 284.931213,481.641907 
	C284.644196,478.481262 284.552032,475.037323 284.561920,471.192078 
z"/>
<path fill="#B5A1E8" opacity="1.000000" stroke="none" 
	d="
M284.613770,487.501709 
	C284.837067,490.170990 284.946167,493.275848 284.858276,496.651917 
	C284.607361,493.927856 284.553497,490.932556 284.613770,487.501709 
z"/>
<path fill="#7380E6" opacity="1.000000" stroke="none" 
	d="
M790.513306,481.453003 
	C790.743408,483.502228 790.874878,485.984528 790.793335,488.714752 
	C790.525146,486.603821 790.469910,484.244965 790.513306,481.453003 
z"/>
<path fill="#7F86E7" opacity="1.000000" stroke="none" 
	d="
M573.855347,537.495056 
	C571.664490,537.644409 569.070740,537.690979 566.245850,537.472839 
	C568.494019,537.269470 570.973267,537.330872 573.855347,537.495056 
z"/>
<path fill="#B5A1E8" opacity="1.000000" stroke="none" 
	d="
M315.737579,467.523315 
	C315.513885,466.121765 315.356262,464.304871 315.428436,462.278320 
	C315.706726,463.748474 315.755188,465.428192 315.737579,467.523315 
z"/>
<path fill="#9681E0" opacity="1.000000" stroke="none" 
	d="
M315.841553,504.910339 
	C315.240784,504.409576 314.724731,503.590485 314.118042,502.417023 
	C314.419006,502.039368 314.810669,502.016113 315.496765,501.984375 
	C315.836243,502.847931 315.881256,503.720001 315.841553,504.910339 
z"/>
<path fill="#A090E3" opacity="1.000000" stroke="none" 
	d="
M315.751770,515.392883 
	C315.402100,515.845886 315.125183,515.880188 314.433807,515.971924 
	C314.408997,514.762756 314.798584,513.496094 315.429932,511.898865 
	C315.722656,512.703613 315.773590,513.838867 315.751770,515.392883 
z"/>
<path fill="#8F90E6" opacity="1.000000" stroke="none" 
	d="
M617.937012,459.688263 
	C617.445557,459.430084 616.893372,458.867981 616.230347,458.026001 
	C616.705139,458.292175 617.290771,458.838257 617.937012,459.688263 
z"/>
<path fill="#7F86E7" opacity="1.000000" stroke="none" 
	d="
M564.810547,536.909668 
	C564.456238,537.085205 563.923828,537.142517 563.200623,537.113892 
	C563.550720,536.949158 564.091492,536.870300 564.810547,536.909668 
z"/>
<path fill="#9187E4" opacity="1.000000" stroke="none" 
	d="
M449.934937,436.713745 
	C449.735870,436.812927 449.540253,436.661255 449.227570,436.360687 
	C449.438568,436.095367 449.714508,436.179077 449.934937,436.713745 
z"/>
<path fill="#5671E8" opacity="1.000000" stroke="none" 
	d="
M790.746826,437.144806 
	C790.877075,437.264557 790.816284,437.450684 790.652710,437.755585 
	C790.388184,437.660492 790.390137,437.439453 790.746826,437.144806 
z"/>
<path fill="#5671E8" opacity="1.000000" stroke="none" 
	d="
M820.154541,456.572784 
	C820.069153,456.593628 820.016052,456.424011 820.002808,456.154358 
	C820.006592,456.065674 820.150757,456.393677 820.154541,456.572784 
z"/>
<path fill="#AD8AE1" opacity="1.000000" stroke="none" 
	d="
M229.879242,450.655334 
	C229.863586,450.741882 229.703018,451.039307 229.465240,451.534363 
	C229.550369,451.462280 229.665802,451.173676 229.879242,450.655334 
z"/>
<path fill="#262C44" opacity="1.000000" stroke="none" 
	d="
M162.467224,528.083557 
	C151.348846,516.482788 145.960266,503.340332 150.042740,487.490417 
	C150.983978,483.836090 152.790253,480.404602 154.240707,476.498291 
	C154.578400,475.979797 154.972519,475.910583 155.155212,475.676361 
	C168.538712,458.521240 185.697952,455.947449 205.638733,462.718384 
	C218.953979,469.559174 227.472885,479.566040 228.481888,494.666748 
	C228.744492,498.596710 227.936676,502.598175 227.594742,506.965210 
	C216.475510,534.794006 191.329407,543.746399 165.443329,529.489563 
	C164.585312,529.017090 163.674179,528.640991 162.467224,528.083557 
z"/>
<path fill="#242B42" opacity="1.000000" stroke="none" 
	d="
M228.804169,542.754639 
	C228.968842,542.653015 229.408401,542.806030 229.742310,543.234497 
	C229.450806,543.343079 229.264938,543.176208 228.804169,542.754639 
z"/>
<path fill="#262C44" opacity="1.000000" stroke="none" 
	d="
M532.124512,485.389008 
	C539.365662,464.877197 553.184998,455.805939 573.049255,457.954712 
	C579.989380,458.705444 585.731384,461.634338 590.663574,466.976807 
	C597.051331,477.037903 598.315613,481.005829 597.551636,488.187714 
	C596.486694,488.338257 595.364319,488.632477 594.241150,488.635559 
	C574.779602,488.689087 555.317932,488.710785 535.856323,488.726105 
	C533.889160,488.727661 531.548523,489.110657 532.124512,485.389008 
z"/>
<path fill="#262C44" opacity="1.000000" stroke="none" 
	d="
M685.515137,530.997620 
	C670.088562,517.858704 665.724487,501.805511 672.067871,482.431763 
	C678.198425,470.367218 686.900024,462.006592 700.731323,459.583710 
	C721.817627,457.599213 737.419678,465.965424 743.416199,482.789551 
	C745.171326,487.713776 745.362000,493.195526 746.342285,498.822449 
	C745.602234,508.823669 743.262512,517.815491 736.526489,525.189087 
	C724.669922,538.168030 707.933594,540.969238 688.587646,532.757568 
	C687.697510,532.345825 687.343872,532.201782 686.990295,532.057739 
	C686.584900,531.723328 686.179504,531.388916 685.515137,530.997620 
z"/>
<path fill="#7380E6" opacity="1.000000" stroke="none" 
	d="
M687.229248,532.204651 
	C687.343872,532.201782 687.697510,532.345825 688.239441,532.712769 
	C688.107910,532.741028 687.788086,532.546265 687.229248,532.204651 
z"/>
</svg>